<svg xmlns="http://www.w3.org/2000/svg" width="511.98" height="511.98" viewBox="0 0 600 600">
  <defs>
    <style>
      .cls-1 {
        fill: #fff;
        fill-rule: evenodd;
      }
    </style>
  </defs>
  <path id="phpStanError_1" data-name="phpStanError 1" class="cls-1" d="M173.825,77.73c24.178-.48,35.42,10.015,50.67,17.963V96.75H223.44c-3.817,3.914-10.242,6.449-12.668,11.623-1.014,1.5-1.031,3.459-1.056,6.34,3.212,1.883,4.055,2.938,9.5,3.17,4.811-7.249,13.078-9.6,21.113-13.737,23.563-12.136,70.334-23.624,102.4-10.566,8.379,3.412,19.57,6.732,27.446,11.623,7.183,4.461,10.154,11.649,21.113,12.68,1.739-2.985,2.756-3.618,3.167-8.453-5.392-3.462-12.319-9.4-15.835-14.794,11.519-5.834,20.435-13.568,34.836-16.906,18.837-4.366,43.23,7.494,52.782,13.736,31.819,20.793,56.722,43.739,72.839,80.306,3.407,7.73,9.084,15.518,10.556,25.36H547.52c-9.183-6.62-24.773-.653-33.78,2.113-31.694,9.734-42.191,38.461-66.5,54.946v-5.283c-2.079-3.326-1.055-11.77-1.056-16.906,0-13.986-.831-28.724-1.056-41.21-3.421-2.162-4.256-3.157-10.556-3.17l-1.056,3.17c-2.72,4.332-1.188,16.85-1.055,23.247,0.38,18.3.9,36.411,1.055,54.946a48.325,48.325,0,0,0-12.667,12.68h-1.056v-1.057c-6.577-4.394-11.37-11.381-16.89-16.907q-19-19.02-38-38.039c-5.213-5.218-11.026-12.619-16.89-16.907-3.194-2.335-7.3-3.129-9.5-6.34-5.019-7.334-6.646-16.129-11.612-23.246-18.023-25.831-41.911-40.391-78.117-48.606-16.454-3.734-38.785-.538-51.726,4.226-40.335,14.85-88.878,68.232-71.784,132.082,5.472,20.439,16.692,43.655,31.669,54.946,5.509,4.154,11.141,7.758,15.835,12.68-2.286,2.415-3.8,6.369-5.278,9.51-7.933-4.819-15.2-12.5-24.28-15.85-35.815-13.2-53.5,18.028-62.282,40.153H79.873v-1.056c-25.3-16.685-30.124-52.8-38-87.7C39.1,267.3,37.561,245.753,40.814,232c10.651-45.021,33.147-95.851,64.394-119.4,13.339-10.054,27.2-21.59,43.281-28.53C154.952,81.281,168.184,81.235,173.825,77.73Zm48.559,92.986c28.907-.732,57.431,7.291,66.505,25.359a49.491,49.491,0,0,0-31.669,15.85c-6.99-3.622-18.587-12.129-31.669-8.453-15.79,4.437-36.609,23.457-27.447,48.606,3.495,9.593,12.707,20.729,22.169,24.3,3.891,1.47,16,.291,19,2.114,2.546,1.544,1.86,9.718,3.167,12.679,2.828,6.408,9.285,11.511,12.668,17.964H253c-9.32,6.69-31.352,2.578-40.114-1.057-26.459-10.977-42.059-25.94-49.615-56-0.989-3.935-3.344-10.216-2.111-15.85,5.508-25.156,17.084-45.413,35.892-57.059C204.112,174.8,215.028,175.451,222.384,170.716Zm74.95,64.456c23.434-.1,28.726,11.847,40.114,23.246,18.127,18.145,35.744,36.765,53.838,54.946,9.108,9.152,21.357,17.667,28.5,28.53h1.056v-1.057c12.023-8.136,23.969-22.217,32.724-33.813l52.782-51.776c10.584-10.594,25.115-28.654,45.393-13.736,8.8,6.475,12.612,25.044,5.278,35.926l-16.89,15.85c-12.6,13.251-25.1,26.182-38,39.1q-15.835,15.849-31.669,31.7c-4.518,4.521-8.293,10.167-13.724,13.736v1.057h1.056c4.752,7.075,12.933,11.314,17.946,17.963,15.952,21.158,37.289,39.439,55.948,58.116,8.268,8.276,22.675,17.46,27.447,28.53,7.959,18.465-6.112,27.646-14.779,35.926-9.289.659-17.644,1.306-24.28-3.17l-27.446-28.53-43.281-42.266c-5.337-7.075-21.9-27.718-30.614-29.586-5.049,7.766-13.584,13.593-20.057,20.076-12.84,12.862-25.158,26.24-38,39.1L319.5,517.3c-12.12,8.552-30.411,2.931-36.947-6.34-14.018-19.886,5.219-34.81,14.779-44.38l39.059-40.153c9.765-9.775,20.069-18.417,28.5-29.586,5.313-7.037,13.981-11.536,19-19.02-7.755-5.068-13.578-13.592-20.057-20.076-16.39-16.406-32.334-33.074-48.559-49.663-8.492-8.683-29.835-25.076-34.836-34.87C269.871,252.507,287.7,242.805,297.334,235.172Zm-178.4,104.609c15.184-.515,40.237,9.337,42.226,20.076,0.321,2.7-4.3,13.955-8.445,15.85-3.459-5.095-9.95-8.979-17.946-9.51l-1.056,3.17c-1.108,1.52-1.644,4.145-2.111,6.34,11.853,6.961,21.021,17.392,31.669,25.36,12.854,9.617,25.05,18.877,38,28.529,11.064,8.245,14.994,18.508,31.669,22.19,1.8-2.88,2.677-2.64,3.167-7.4-0.72-.815-1.384-2.358-2.111-3.169-7.169-7.274-21.057-11.324-23.224-23.247,8.736-9.864,13.965-40.038,19-53.889,1.427-3.923.928-7.735,3.167-10.567,4.835-2.9,12.734-.59,19-2.113,12.314-2.993,23.348-9.693,34.836-11.623,4.831,7.372,12.844,12.856,19,19.019s11.641,14.161,19,19.02v1.057h-1.056c-5.4,8.135-14.28,14.293-21.113,21.133-12.7,12.714-24.548,26.056-36.947,39.1-8.323,8.753-19.7,17.373-24.28,29.587-2.2,5.873-7.04,25.443-5.278,32.756,1.359,5.639,3.882,10.684,4.223,17.963h-2.112c-20.03,13.534-55.71-6.551-66.5-13.737-32.993-21.962-55.477-55.579-70.727-95.1-4.55-11.789-12.134-34.383-5.279-50.719C100.514,348.405,109.77,346.832,118.931,339.781Z"/>
</svg>
