<svg xmlns="http://www.w3.org/2000/svg" width="511.98" height="511.98" viewBox="0 0 600 600">
  <defs>
    <style>
      .cls-1 {
        fill: #fff;
        fill-rule: evenodd;
      }
    </style>
  </defs>
  <path id="phpStanLogo" class="cls-1" d="M232.432,353.875c72.217,0.015,127.648-68.215,108.594-141.7-7.748-29.878-39.128-67.524-76.655-76.71-78.545-19.226-124.8,30.21-139.468,82.037-3.914,13.836-2.389,41.7,1.065,54.336,3.982,14.566,13.084,32.429,22.357,42.617,6.554,7.2,17.978,16.539,23.638,21.01-1.99,2.784-3.764,8.466-5.539,10.952v-1.065c-7.811-5.451-16.542-13.589-26.616-15.981-37.653-8.941-52.266,19.18-59.62,40.485l-1.065-1.065c-28.158-20.165-49.2-95.452-36.2-147.027,13.737-54.48,42.062-96.217,83.042-123.588,15.884-10.609,41.682-24.944,70.266-15.981,10.9,3.419,18.671,9.978,27.681,14.916l-1.065,1.066c-4.5,4.441-10.08,7.4-13.84,11.719-0.747,4.394.516,6.633,3.194,8.523,1.952,0.489,2.839,1.339,5.323,1.066,16.215-17.789,82.055-40.964,123.5-24.5,9.545,3.791,20.832,7.606,29.81,12.785,6.632,3.827,9.654,10.356,19.163,11.72,2.723-2.959,3.641-2.922,4.259-8.523-4.906-4.926-11.775-9.441-15.97-14.916,7.872-4.224,15.726-10.343,24.487-13.85,21.162-8.472,50.445,1.807,62.814,9.589,45.334,28.525,73.8,65.153,89.43,123.588,6.5,24.3,9.737,71.346,0,95.887-13.385,33.735-29.877,66.146-62.814,79.907-39.142,16.352-87.043-15.849-88.366-50.075,29.988-19.307,45.117-43.986,42.536-93.593-0.77-14.811-.179-37.282-1.015-50.238-0.3-7.661-4.258-8.168-5.323-8.523-3.675-.967-6.222.392-7.452,3.2-1.011,10.535.575,38.05,1.064,47.944,2.6,52.411-12.244,79.175-40.456,90.56v-2.131c4.317-10.148,10.141-23.07,9.582-37.289l-8.517-1.066-2.13,1.066C361.44,370.89,335.842,447.632,278.212,499.837c-16.112,14.6-52.6,33.276-86.236,19.177-44.014-18.446-67.8-55.869-88.366-98.018-6.822-13.985-17.271-44.12-6.387-62.859,12.669-21.813,34.461-20.862,54.3-6.393,4.837,3.528,10.011,5.458,9.582,10.654q-3.726,7.458-7.452,14.916c-6.727-4.311-10.616-9.886-19.164-9.589-2.118,3.32-2.961,3.653-3.194,9.589,23.98,16.652,45.341,36.953,69.2,54.336,9.644,7.026,16.731,20.36,31.939,21.309,0.355-1.066,2.839-3.2,3.194-4.262,0.355-2.131-1.419-3.2-1.065-5.327C227.7,436.88,213.805,430,210.075,421,216.236,410.7,227.719,366.527,232.432,353.875Zm-3.194-182.186c37.273-.768,61.885,21.251,70.267,42.617,18.224,46.46-14.706,89.954-52.168,98.018C197.9,322.966,145.146,269.1,165.36,219.633c7.747-18.961,22.531-36.036,41.521-43.682C212.558,174.53,219.923,172.311,229.238,171.689Zm0,33.028c-8.783.444-28.082,11.057-31.939,26.635-6.236,25.19,13.749,51.929,41.521,47.944C283.205,272.927,280.715,204.661,229.238,204.717Z"/>
</svg>
