<svg xmlns="http://www.w3.org/2000/svg" width="511.98" height="511.98" viewBox="0 0 600 600">
  <defs>
    <style>
      .cls-1 {
        fill: #fff;
        fill-rule: evenodd;
      }
    </style>
  </defs>
  <path id="phpStanSuccessv2_1" data-name="phpStanSuccessv2 1" class="cls-1" d="M177.1,54.989c17.076-.31,46.673,9.834,51.642,20.037-5.772,3.532-14.589,8.649-14.755,17.928,2.757,2.621,2.008,3.681,7.378,4.218,1.02,0.265.4,0.827,1.053,0,7.045-3.666,12.977-10.068,20.025-13.71,23.7-12.246,73.471-24.581,106.446-13.71,11.637,3.836,26.591,9.388,36.887,15.819,6.991,4.366,8.682,10.908,20.025,11.6,1.878-3.209,2.931-4.051,3.162-9.491-5.252-2.949-14.525-9.063-15.809-15.819,13-3.75,21.5-13.409,36.887-16.873,18.075-4.07,37.11,5.19,47.427,10.546C510.5,82.682,555.836,124.014,566,162.557h-5.27c-3.368-2.459-7.967-1.795-12.647-3.164-17.918-5.242-28.295-2.992-45.318,2.109-5.245,1.572-10.532.682-14.755,3.164-8.9,5.231-16.637,13.342-25.294,18.983,0.237-5.948-.019-9.118-3.162-11.6-2.795-2.252-5.638-2.268-8.431,0-3.954,4.465-2.287,19.367-2.108,27.42-6.569,4.374-11.355,11.362-16.863,16.873-10.77,10.777-22.331,20.394-31.618,32.693q-15.281,14.762-30.563,29.528c-20.2,20.213-39.877,40.951-60.074,61.166-11.768,11.779-23.01,24.08-34.779,35.857-4.213,4.214-7.6,10.451-13.7,12.655-6.116-9.109-25.214-20.022-27.4-30.583,2.193-2.843,3.354-8.779,4.215-12.656h10.54c6.637-4.046,21.788-3.213,29.509-6.327,19.133-7.717,40.126-20.334,51.643-35.856a153.7,153.7,0,0,0,23.186-44.293c20.229-63.112-25.427-122-65.343-139.206l-25.294-7.382c-9.7-2.413-24.211-3.151-33.726-1.055-9.286,2.046-16.22.547-24.24,3.164-36.107,11.779-58.459,36.739-72.721,70.657-6.314,15.016-13.081,42.928-7.377,66.44,5.913,24.374,17.789,39.4,29.51,56.948H149.7c-6.646-4.335-19.984,1.563-25.294,3.163l-20.025,4.219C90,321.668,74.31,336.2,67.5,350.274l-2.108-1.054c-8.5-16.83-18.174-33.313-24.24-53.784C13.2,201.121,72.727,110.052,125.461,75.026a155.916,155.916,0,0,1,30.563-15.819C162.208,56.946,171.6,58.413,177.1,54.989Zm50.588,98.077c39.625-.652,63.322,11.98,77.99,35.856,30.2,49.159-11.461,102.841-52.7,112.841-10.582,2.567-24.553.942-33.725-2.109-28.366-9.436-67.958-46.912-53.75-90.695a90.461,90.461,0,0,1,40.049-49.566Zm3.162,34.8c-11.885,9.005-24.641,11.281-29.51,27.42-8.561,28.38,20.158,58.975,48.48,50.62,22.549-6.652,38.7-35.923,22.133-61.166C264.342,193.139,250.735,187.41,230.853,187.867Zm292.99,34.8c19.755-.393,20.657,7.223,29.51,16.873,0.265,5.931,2.031,10.017,0,15.819-3.142,8.977-11.749,14.921-17.917,21.092-12.12,12.128-23.716,24.78-35.833,36.911C443.23,369.8,388.413,427.786,332.029,484.208c-16.336,16.347-32.12,33.241-48.48,49.565-5.091,5.08-12.737,14.7-25.294,11.6-16.75-4.136-27.176-22.878-37.941-33.747C192.34,483.383,164.1,455.38,136,427.26c-9.956-9.964-24.127-27.008-11.593-44.293,13.779-19,34.411-3.532,44.264,6.327,22.308,22.323,44.09,45.172,66.4,67.494,7.063,7.068,19.3,24.055,28.455,27.42,3.586-5.419,9.185-9.191,13.7-13.71,10.847-10.854,22.107-21.586,32.672-32.693,18.629-19.584,36.382-42.647,57.966-59.057,2.85-2.167,4.111-5.509,6.323-8.436,7.622-10.087,19.446-19.459,28.456-28.474C442.568,301.887,479.576,258.193,523.843,222.669Z"/>
</svg>
