<svg xmlns="http://www.w3.org/2000/svg" width="511.98" height="511.98" viewBox="0 0 600 600">
  <defs>
    <style>
      .cls-1 {
        fill: #fff;
        fill-rule: evenodd;
      }
    </style>
  </defs>
  <path id="phpStanErrorV2_1" data-name="phpStanErrorV2 1" class="cls-1" d="M554,180.458c-11.294-.587-21.182-4.931-31.217-7.052-4.942-1.044-37.885,7.1-42.294,9.067-9.094,4.063-15.625,14.777-25.175,18.134,0.255-5.9.162-9.657-3.021-12.089a5.767,5.767,0,0,0-8.056,0c-3.929,4.257-2.174,19.428-2.014,27.2-6.772,4.347-26.846,24.457-31.217,31.231H410v-1.008q-21.146-20.65-42.294-41.3l-9.063-10.075c-5.621-4.083-11.566-8.57-17.119-12.089l-6.042-2.015c-3-2.772-4.575-7.761-7.049-11.082-7.026-9.43-21.95-20.913-32.224-27.2-13.39-8.194-30.449-9.007-48.336-13.1-23.584-5.392-54.785,10.34-66.462,18.134-23.934,15.974-40.453,39.691-49.343,70.52-2.727,9.455-2.189,28.946,0,38.283,1.548,6.6.106,11.331,2.014,17.126,8.462,25.695,24.669,48.849,46.322,61.453l-5.035,11.082c-6.956-4.471-13.286-11.756-21.147-15.111-17.83-7.61-42.929-1.119-51.357,10.074-3.31,4.4-13.523,26.749-16.112,28.208C69.963,350.687,60.694,333.5,52.514,306.387c-2.8-9.278-1.693-17.161-4.028-27.2-3.022-13-3.626-39.027,0-52.387,13.7-50.483,36.665-95.866,73.511-122.907,23.22-17.04,57.971-37.545,92.644-19.141,5.407,2.87,14.481,5.61,17.119,11.082-5.484,3.3-13.989,8.32-14.1,17.126,2.633,2.471,1.908,3.569,7.049,4.03V118h1.007V116.99c6.75-3.456,12.407-9.607,19.133-13.1,18-9.335,66.144-22.832,93.651-15.111,14.564,4.088,31.2,9.554,43.3,17.126,6.643,4.157,8.313,10.489,19.133,11.082,1.781-3.062,2.826-3.869,3.021-9.067-4.952-2.744-13.977-8.715-15.105-15.112,5.554-1.544,8.8-5.437,13.091-8.059,6.29-3.842,14.256-6.211,22.154-8.059,11.855-2.775,34.126,3.5,41.287,7.052,31.877,15.818,56.156,39.983,74.518,69.512C544.708,160.986,552.465,169.95,554,180.458ZM230.753,170.384c18.107-.331,29.512,2.988,42.294,6.044v2.015c-14.672.729-31.408,14.172-38.266,23.171-5.9,7.745-19.216,9.966-25.175,19.141-8.955,13.79-3.268,26.817,1.007,39.29,4.126,12.04,3.037,24.492,7.049,36.268,1.805,5.3,5.61,9.415,8.056,14.1H222.7c-6.622-5.349-16.326-7.288-23.161-12.089-18.954-13.315-40.083-47.75-26.182-80.595a117.353,117.353,0,0,1,13.091-22.163c5.3-7.174,16.743-16.434,25.175-20.149C217.394,172.877,225.735,173.832,230.753,170.384Zm62.434,66.49c22.568-.117,27.33,11.223,38.266,22.164,17.3,17.3,34.123,35.012,51.357,52.386,8.636,8.707,20.493,16.822,27.189,27.2a2.613,2.613,0,0,0,1.007-1.007c5.543-3.669,9.469-9.474,14.1-14.1,8.66-8.665,17.726-16.251,25.175-26.194q21.145-20.651,42.294-41.3c10.132-10.137,23.908-27.283,43.3-13.1,8.412,6.154,12.019,23.892,5.035,34.253L523.79,293.291c-12.3,13.788-25.255,26.273-38.266,39.289l-28.2,28.209c-3.982,3.984-7.257,8.98-12.084,12.089a2.613,2.613,0,0,0,1.007,1.007c4.974,7.565,13.824,12.046,19.133,19.141,14.568,19.471,34.232,36.262,51.357,53.394,7.229,7.232,22.165,17.931,26.182,27.2,7.951,18.346-5.853,26.152-14.1,34.253-8.873.6-16.814,1.255-23.161-3.023l-26.182-27.2-41.287-40.3c-4.941-6.6-21.1-26.585-29.2-28.208-6.6,10.357-18.923,16.521-26.182,26.194-12.686,16.9-29.48,30.5-44.308,45.334l-24.168,25.186c-9.818,6.918-28.127,4.088-34.238-4.03-14.856-19.737,2.952-34.184,13.091-44.327l82.574-84.624c-8.517-5.454-15.069-15.076-22.154-22.164-16.951-16.958-33.4-34.421-50.35-51.379-9.07-9.074-24.437-18.517-28.2-32.238C270.221,249.43,285.828,242.909,293.187,236.874ZM128.039,340.64c15-.425,40.857,10.6,41.287,23.171-3.068,3.18-5.1,8.968-7.049,13.1h-2.014c-3.418-5.195-9.478-9-18.126-9.066q-0.5,1.51-1.007,3.022c-1.082,1.417-1.585,3.969-2.014,6.044,21.137,12.785,37.81,31.987,57.4,46.342,7.544,5.528,22.209,11.656,24.168,22.164-3.929,4.154-3.144,11.821-5.035,18.134-1.459,4.869-3.8,12.123-5.035,17.126-2.489,10.094,7,35.4,9.063,44.327h-2.014c-4.2-2.832-11.308-2.014-16.112-4.03a148.429,148.429,0,0,1-26.182-14.1c-31.383-21.91-51.692-58.085-67.469-95.706-4.187-9.985-11.909-31.652-6.042-47.349,2.926-7.83,9.928-16.41,17.119-20.149Zm130.91,11.082h5.035c3.765,5.9,15.256,17.363,21.147,21.156a2.613,2.613,0,0,1-1.007,1.007c-4.56,7.038-12.268,12.273-18.126,18.134L244.851,415.19c-5.526,5.528-11.388,9.685-15.1,17.126h-2.014l-9.063-10.074c1.381-5.956,4.978-11.6,7.049-17.126q7.552-25.687,15.105-51.379h10.07C252.552,352.652,257.306,352.84,258.949,351.722Z"/>
</svg>
