<svg xmlns="http://www.w3.org/2000/svg" width="511.98" height="511.98" viewBox="0 0 600 600">
  <defs>
    <style>
      .cls-1 {
        fill: #fff;
        fill-rule: evenodd;
      }
    </style>
  </defs>
  <path id="phpStanV3" class="cls-1" d="M234.989,350.284c69.394,0.015,122.658-65.494,104.349-136.049-7.445-28.687-37.6-64.832-73.658-73.651-75.476-18.46-119.928,29-134.017,78.765-3.761,13.285-2.3,40.039,1.023,52.17,3.826,13.985,12.573,31.136,21.484,40.917,6.3,6.912,17.275,15.879,22.714,20.172-1.912,2.673-3.618,8.129-5.323,10.516V342.1c-7.5-5.233-15.9-13.047-25.575-15.344-36.182-8.584-50.224,18.416-57.29,38.871l-1.023-1.023C60.615,345.244,40.394,272.96,52.89,223.441c13.2-52.307,40.418-92.38,79.8-118.66,15.263-10.186,40.053-23.949,67.52-15.344,10.477,3.282,17.941,9.58,26.6,14.321l-1.023,1.023c-4.322,4.264-9.687,7.1-13.3,11.252-0.718,4.219.5,6.368,3.069,8.184,1.876,0.469,2.729,1.285,5.116,1.023,15.581-17.08,78.847-39.331,118.671-23.528,9.172,3.64,20.018,7.3,28.644,12.275,6.374,3.675,9.278,9.943,18.415,11.253,2.617-2.842,3.5-2.806,4.092-8.184-4.714-4.729-11.314-9.063-15.345-14.321,7.564-4.056,15.111-9.93,23.529-13.3,20.335-8.134,48.474,1.734,60.359,9.206C502.6,126.031,529.949,161.2,544.966,217.3c6.245,23.331,9.356,68.5,0,92.064-12.862,32.39-28.708,63.508-60.359,76.72-37.612,15.7-83.64-15.217-84.911-48.078,28.816-18.537,43.353-42.232,40.874-89.86-0.741-14.221-.173-35.8-0.976-48.235-0.292-7.356-4.092-7.843-5.115-8.184-3.532-.928-5.978.376-7.161,3.069-0.971,10.115.552,36.533,1.023,46.032,2.494,50.321-11.766,76.018-38.875,86.949v-2.046c4.148-9.744,9.744-22.15,9.207-35.8l-8.184-1.022-2.046,1.022c-29.488,76.69-54.087,150.372-109.464,200.5-15.482,14.012-50.54,31.949-82.865,18.412-42.293-17.71-65.155-53.641-84.911-94.109-6.556-13.428-16.6-42.361-6.139-60.353,12.174-20.943,33.115-20.03,52.175-6.138,4.647,3.388,9.62,5.241,9.207,10.23l-7.161,14.321c-6.463-4.139-10.2-9.492-18.415-9.207-2.035,3.187-2.845,3.507-3.069,9.207,23.043,15.988,43.569,35.48,66.5,52.169,9.267,6.746,16.077,19.548,30.691,20.459,0.341-1.023,2.728-3.069,3.069-4.092,0.341-2.046-1.364-3.069-1.023-5.115-6.6-6.231-19.945-12.835-23.53-21.481C219.426,404.843,230.46,362.431,234.989,350.284ZM231.92,175.363c35.816-.737,59.466,20.4,67.52,40.917,17.512,44.608-14.131,86.368-50.129,94.11-47.509,10.218-98.2-41.5-78.773-88.995,7.445-18.205,21.651-34.6,39.9-41.94C215.892,178.091,222.969,175.96,231.92,175.363Zm0,31.711c-8.44.426-26.985,10.616-30.691,25.573-5.992,24.185,13.212,49.858,39.9,46.032C283.777,272.564,281.384,207.02,231.92,207.074Zm3.069,143.21c69.394,0.015,122.658-65.494,104.349-136.049-7.445-28.687-37.6-64.832-73.658-73.651-75.476-18.46-119.928,29-134.017,78.765-3.761,13.285-2.3,40.039,1.023,52.17,3.826,13.985,12.573,31.136,21.484,40.917,6.3,6.912,17.275,15.879,22.714,20.172-1.912,2.673-3.618,8.129-5.323,10.516V342.1c-7.5-5.233-15.9-13.047-25.575-15.344-36.182-8.584-50.224,18.416-57.29,38.871l-1.023-1.023C60.615,345.244,40.394,272.96,52.89,223.441c13.2-52.307,40.418-92.38,79.8-118.66,15.263-10.186,40.053-23.949,67.52-15.344,10.477,3.282,17.941,9.58,26.6,14.321l-1.023,1.023c-4.322,4.264-9.687,7.1-13.3,11.252-0.718,4.219.5,6.368,3.069,8.184,1.876,0.469,2.729,1.285,5.116,1.023,15.581-17.08,78.847-39.331,118.671-23.528,9.172,3.64,20.018,7.3,28.644,12.275,6.374,3.675,9.278,9.943,18.415,11.253,2.617-2.842,3.5-2.806,4.092-8.184-4.714-4.729-11.314-9.063-15.345-14.321,7.564-4.056,15.111-9.93,23.529-13.3,20.335-8.134,48.474,1.734,60.359,9.206C502.6,126.031,529.949,161.2,544.966,217.3c6.245,23.331,9.356,68.5,0,92.064-12.862,32.39-28.708,63.508-60.359,76.72-37.612,15.7-83.64-15.217-84.911-48.078,28.816-18.537,43.353-42.232,40.874-89.86-0.741-14.221-.173-35.8-0.976-48.235-0.292-7.356-4.092-7.843-5.115-8.184-3.532-.928-5.978.376-7.161,3.069-0.971,10.115.552,36.533,1.023,46.032,2.494,50.321-11.766,76.018-38.875,86.949v-2.046c4.148-9.744,9.744-22.15,9.207-35.8l-8.184-1.022-2.046,1.022c-29.488,76.69-54.087,150.372-109.464,200.5-15.482,14.012-50.54,31.949-82.865,18.412-42.293-17.71-65.155-53.641-84.911-94.109-6.556-13.428-16.6-42.361-6.139-60.353,12.174-20.943,33.115-20.03,52.175-6.138,4.647,3.388,9.62,5.241,9.207,10.23l-7.161,14.321c-6.463-4.139-10.2-9.492-18.415-9.207-2.035,3.187-2.845,3.507-3.069,9.207,23.043,15.988,43.569,35.48,66.5,52.169,9.267,6.746,16.077,19.548,30.691,20.459,0.341-1.023,2.728-3.069,3.069-4.092,0.341-2.046-1.364-3.069-1.023-5.115-6.6-6.231-19.945-12.835-23.53-21.481C219.426,404.843,230.46,362.431,234.989,350.284ZM231.92,175.363c35.816-.737,59.466,20.4,67.52,40.917,17.512,44.608-14.131,86.368-50.129,94.11-47.509,10.218-98.2-41.5-78.773-88.995,7.445-18.205,21.651-34.6,39.9-41.94C215.892,178.091,222.969,175.96,231.92,175.363Zm0,31.711c-8.44.426-26.985,10.616-30.691,25.573-5.992,24.185,13.212,49.858,39.9,46.032C283.777,272.564,281.384,207.02,231.92,207.074Zm3.069,143.21c69.394,0.015,122.658-65.494,104.349-136.049-7.445-28.687-37.6-64.832-73.658-73.651-75.476-18.46-119.928,29-134.017,78.765-3.761,13.285-2.3,40.039,1.023,52.17,3.826,13.985,12.573,31.136,21.484,40.917,6.3,6.912,17.275,15.879,22.714,20.172-1.912,2.673-3.618,8.129-5.323,10.516V342.1c-7.5-5.233-15.9-13.047-25.575-15.344-36.182-8.584-50.224,18.416-57.29,38.871l-1.023-1.023C60.615,345.244,40.394,272.96,52.89,223.441c13.2-52.307,40.418-92.38,79.8-118.66,15.263-10.186,40.053-23.949,67.52-15.344,10.477,3.282,17.941,9.58,26.6,14.321l-1.023,1.023c-4.322,4.264-9.687,7.1-13.3,11.252-0.718,4.219.5,6.368,3.069,8.184,1.876,0.469,2.729,1.285,5.116,1.023,15.581-17.08,78.847-39.331,118.671-23.528,9.172,3.64,20.018,7.3,28.644,12.275,6.374,3.675,9.278,9.943,18.415,11.253,2.617-2.842,3.5-2.806,4.092-8.184-4.714-4.729-11.314-9.063-15.345-14.321,7.564-4.056,15.111-9.93,23.529-13.3,20.335-8.134,48.474,1.734,60.359,9.206C502.6,126.031,529.949,161.2,544.966,217.3c6.245,23.331,9.356,68.5,0,92.064-12.862,32.39-28.708,63.508-60.359,76.72-37.612,15.7-83.64-15.217-84.911-48.078,28.816-18.537,43.353-42.232,40.874-89.86-0.741-14.221-.173-35.8-0.976-48.235-0.292-7.356-4.092-7.843-5.115-8.184-3.532-.928-5.978.376-7.161,3.069-0.971,10.115.552,36.533,1.023,46.032,2.494,50.321-11.766,76.018-38.875,86.949v-2.046c4.148-9.744,9.744-22.15,9.207-35.8l-8.184-1.022-2.046,1.022c-29.488,76.69-54.087,150.372-109.464,200.5-15.482,14.012-50.54,31.949-82.865,18.412-42.293-17.71-65.155-53.641-84.911-94.109-6.556-13.428-16.6-42.361-6.139-60.353,12.174-20.943,33.115-20.03,52.175-6.138,4.647,3.388,9.62,5.241,9.207,10.23l-7.161,14.321c-6.463-4.139-10.2-9.492-18.415-9.207-2.035,3.187-2.845,3.507-3.069,9.207,23.043,15.988,43.569,35.48,66.5,52.169,9.267,6.746,16.077,19.548,30.691,20.459,0.341-1.023,2.728-3.069,3.069-4.092,0.341-2.046-1.364-3.069-1.023-5.115-6.6-6.231-19.945-12.835-23.53-21.481C219.426,404.843,230.46,362.431,234.989,350.284ZM231.92,175.363c35.816-.737,59.466,20.4,67.52,40.917,17.512,44.608-14.131,86.368-50.129,94.11-47.509,10.218-98.2-41.5-78.773-88.995,7.445-18.205,21.651-34.6,39.9-41.94C215.892,178.091,222.969,175.96,231.92,175.363Zm0,31.711c-8.44.426-26.985,10.616-30.691,25.573-5.992,24.185,13.212,49.858,39.9,46.032C283.777,272.564,281.384,207.02,231.92,207.074Zm150.043,13.7c-11.958.628-16.709,5.088-18.036,5.549-4.606,4.072-7.571,5.985-9.712,12.486,0.5,6.675.672,7.422,5.549,9.711,1.85,0.462,3.7.809,6.937-1.388,5.353-4.871,6.4-7.756,16.65-8.323,11.292,0.51,14.3,9.55,20.811,9.711,4.4-.837,3.811-1.055,6.937-4.162,2.457-3.035.463-8.787,0-9.711C403.622,224.084,396.865,221.518,381.963,220.775Z"/>
</svg>
