<svg xmlns="http://www.w3.org/2000/svg" width="511.98" height="511.98" viewBox="0 0 600 600">
  <defs>
    <style>
      .cls-1 {
        fill: #fff;
        fill-rule: evenodd;
      }
    </style>
  </defs>
  <path id="phpErrorV1_1" data-name="phpErrorV1 1" class="cls-1" d="M176.027,80.1c16.389-.473,45.715,9.265,49.425,19.56h-1.03c-4.727,4.771-12.467,6.9-13.386,15.442,1.225,1.1,1.7,2.063,3.09,3.089,1.73,1.384,3.236,1.685,6.178,2.059,4.695-7.073,12.761-9.333,20.593-13.383,21.639-11.192,63.306-23.94,95.761-13.384,10.987,3.574,25.308,8.364,35.009,14.413,6.807,4.245,10.113,10.057,19.564,12.354,0.99-1.818,1.294-1.73,2.059-4.118,0.9-1.333.921-2.54,1.03-5.148-5.26-3.372-12.016-9.16-15.445-14.412,12.49-4.046,20.239-13.138,35.009-16.472,25.639-5.787,51.316,12.818,63.84,21.619,35.075,24.65,54.864,53.715,71.048,97.8,4.154,11.315,8.856,24.192,9.267,39.12h-1.03v-1.029c-4.488-4.248-9.4-9.831-15.445-12.354-46.326-19.334-71.345,37.461-96.79,54.563v-2.059c3.412-5.373,2.082-17.663,2.059-25.737q-1.029-30.367-2.059-60.74c-3.133-1.835-3.955-2.863-9.267-3.089-4.067,6.621-3.246,19.8-3.089,30.885,3.231,5.016-.351,15.813,1.03,22.649,3.685,18.251-.854,46.4-8.238,58.681L410.8,315.855h-1.03v-1.029c-3.915-2.4-7.676-5.41-8.238-11.325,1.9-2.853,2.05-8.981,2.06-13.383a25.806,25.806,0,0,0-8.238-1.029v-1.03H394.32v1.03c-2.124,1.721-2.415,4.087-4.119,6.176q-16.473-16.984-32.95-33.973L345.925,251V229.378c-2.857-4.638-1.347-11.746-3.089-17.5a150.259,150.259,0,0,0-6.178-16.472c-14.448-32.617-45.441-53.942-84.434-62.8-15.834-3.6-37.6-1.1-50.455,3.088C161,148.991,111.617,203.5,127.632,265.41c7.7,29.763,24.34,53.508,47.366,67.947l-5.149,10.295c-7.463-4.79-14.039-11.931-22.653-15.443-25.464-10.381-47.019,6.678-55.6,20.59-3.455,5.6-3.965,13.746-8.238,18.531V366.3c-8.738-5.2-12.152-12.953-17.5-21.619-12.594-20.392-30.1-74.339-21.623-111.185,11.178-48.565,34.195-97.187,67.959-122.51,11.821-8.865,25.016-18.625,39.128-24.707C157.618,83.562,170.526,83.516,176.027,80.1Zm49.425,91.624c45.04-.654,65.785,17.539,78.256,49.416h-2.06c-8.041-5.462-27.682,5.425-31.92,8.236-7.761-32.577-57.011-30.689-68.988-3.088-10.307,23.75,9.431,46.7,25.742,51.474,6.478,1.9,25.255-2.449,25.742-2.059q2.06,6.177,4.118,12.354c3.342,5.5,10.061,9.181,12.357,15.442-10.959,3.039-23.544,12.4-41.188,8.236-39.061-9.214-80.133-48.431-57.662-97.8,6.962-15.3,22.333-31.613,38.1-38.092C213.319,173.637,220.849,174.711,225.452,171.726Zm158.571,46.328c-2.377,1.431-6.32.956-9.267,2.059-10.361,3.877-17.489,10.958-16.475,23.678,3.332,1.954,4.486,2.989,10.3,3.088,20.023-22.18,24.324-1.462,43.246,0,3.791-3.942,5.289-4.951,5.149-13.383C407.668,224.633,402.31,218.7,384.023,218.054Zm-93.7,22.648c22.958-.117,27.988,11.512,39.128,22.649,17.688,17.685,34.9,35.765,52.514,53.534,8.869,8.948,20.823,17.2,27.8,27.8h1.03v-1.029c11.728-7.928,23.38-21.647,31.92-32.944q25.739-25.221,51.484-50.445c10.323-10.322,24.5-27.918,44.276-13.384,8.586,6.309,12.3,24.4,5.148,35l-16.474,15.442c-12.295,12.911-24.484,25.51-37.069,38.092L459.19,366.3c-4.407,4.406-8.089,9.906-13.386,13.384v1.029h1.029c4.636,6.894,12.615,11.023,17.5,17.5,15.56,20.614,36.372,38.425,54.573,56.622,8.065,8.063,22.118,17.01,26.772,27.8,7.764,17.991-5.962,26.935-14.416,35-9.06.642-17.21,1.272-23.682-3.089l-26.772-27.8L438.6,445.571c-5.206-6.893-21.364-27.005-29.861-28.826-5.918,9.116-16.146,15.985-23.682,23.679-15.149,15.466-30.007,31.029-45.306,46.327-7.533,7.531-22.283,26.491-30.891,30.885-21.916,11.186-37.274-8.33-37.068-28.826,2.084-2.615,2.156-6.365,4.118-9.266q22.652-22.131,45.306-44.268,8.753-9.779,17.5-19.56c8.265-6.242,13.5-13.347,20.594-20.59,5.017-5.123,11.413-9.384,15.445-15.442-7.565-4.938-13.245-13.243-19.564-19.561-16.3-16.3-32.1-33.108-48.395-49.415-8-8-28.293-23.834-32.95-32.944C263.534,257.592,280.927,248.14,290.322,240.7ZM555.98,297.324c3.415,5.945-4.811,18.916-7.208,23.679-11.884,23.617-20.444,42.261-40.158,57.651-3.888,3.036-18.875,14.1-23.682,11.325a38.081,38.081,0,0,1-10.3-10.295c12.838-8.484,23.152-23.148,33.979-33.973C522.761,331.567,545.2,313.6,555.98,297.324Zm-259.48,35c5.623,2.009,8.507,7.477,12.356,11.325l37.069,36.032v1.029H344.9l-64.87,66.917c-7.9,7.9-20,16.138-24.712,26.767-5.675,12.8-2.069,24.742-1.03,38.091-8.393,1.971-16.814,5.09-25.742,7.207-16.856,4-32.969-4.425-42.217-9.266-35.129-18.389-48.871-41.085-68.988-74.123-8.71-14.3-27.259-46.42-20.594-71.035,3.178-11.736,12.041-22.483,23.683-25.737,16.3-4.557,43.037,11.273,43.246,22.648-3.183,3.567-3.744,10.095-8.237,12.354a23.99,23.99,0,0,0-17.5-9.265c-1.955,3.331-2.99,4.485-3.089,10.295,10.987,3.723,19.13,15.137,27.8,21.619,14.293,10.685,27.821,21.2,42.217,31.914,10.127,7.538,13.692,18.379,29.861,20.59,1.759-2.805,2.611-2.572,3.089-7.206-7.3-8.288-16.686-15.107-24.712-22.649,0.714-11.209,10.722-32.1,14.415-43.239,2.6-7.839,2.479-17.878,7.208-23.678,5.766-3.443,15.408-1.139,22.653-3.089C270.7,346.243,288.028,341.213,296.5,332.327Z"/>
</svg>
