<svg xmlns="http://www.w3.org/2000/svg" width="511.98" height="511.98" viewBox="0 0 600 600">
  <defs>
    <style>
      .cls-1 {
        fill: #fff;
        fill-rule: evenodd;
      }
    </style>
  </defs>
  <path id="phpSuccessIcon_1" data-name="phpSuccessIcon 1" class="cls-1" d="M402.417,289.5H391.836c-8.031,35.431-29.291,52.581-50.789,74.084l-46.556,48.683c-8.542,8.544-18.74,16.094-25.395,26.459h-1.058v-1.059c-7.38-4.856-12.87-12.873-19.046-19.05-9.406-9.408-21.611-17.97-28.569-29.633q5.82-17.461,11.64-34.925c6.549-3.943,24.778-2.674,32.8-5.292,21.133-6.9,42.978-20.8,55.021-37.042a143.65,143.65,0,0,0,21.162-41.275c21.194-66.551-31.975-123.36-76.183-136.526-66.191-19.713-115.11,21.332-133.321,64.559-7.037,16.7-13.978,44.233-7.407,68.792,5.477,20.468,16.735,43.729,31.743,55.033,5.522,4.16,11.167,7.771,15.872,12.7-2.292,2.419-3.81,6.379-5.291,9.526-7.951-4.827-15.23-12.52-24.336-15.876-35.9-13.226-53.63,18.057-62.428,40.217H78.638v-1.058c-30.351-19.927-51.3-104.09-34.917-154.518,17.049-52.479,42.71-90,84.649-117.475,13.8-9.039,36.5-23.421,61.369-16.933C203.18,82.391,212.5,90.179,223.6,95.819v1.058H222.54c-3.826,3.92-10.266,6.459-12.7,11.642-1.016,1.5-1.033,3.464-1.058,6.35,3.22,1.886,4.065,2.943,9.523,3.175,4.822-7.261,13.108-9.614,21.162-13.759,23.619-12.155,70.5-23.662,102.636-10.583,8.4,3.418,19.617,6.743,27.511,11.642,7.2,4.468,10.177,11.667,21.162,12.7,1.743-2.99,2.762-3.624,3.174-8.467-5.4-3.467-12.347-9.417-15.871-14.817,9.8-4.948,18.3-12.7,29.626-15.875,24.006-6.725,48.285,6.125,61.37,14.817,43.129,28.649,58.161,52.251,80.416,101.6h-4.232c-8.162-5.839-24.192.808-31.743,3.175-31.528,9.881-42.181,40.56-66.661,57.15v-6.35c-2.084-3.332-1.057-11.789-1.058-16.934,0-14.007-.833-28.769-1.058-41.275-3.429-2.165-4.266-3.162-10.581-3.175q-0.53,1.587-1.058,3.175c-2.726,4.339-1.192,16.876-1.058,23.284,0.39,18.726.9,37.031,1.058,56.092-12.412,8.245-19.251,23.452-31.743,31.75v-2.117C402.774,297.97,402.526,293.191,402.417,289.5ZM221.482,170.961c36.038-.608,59.61,10.155,73.009,31.75,31.322,50.484-9.969,100.484-52.906,110.067-12.082,2.7-24.521-2.283-31.743-5.291-25.372-10.571-60.586-42.385-47.614-82.551,5.891-18.241,18.843-36.21,33.859-45.509C203.159,175.048,214.127,175.713,221.482,170.961Zm3.174,32.808c-11.624,8.758-24.224,11.4-28.569,27.517-7.512,27.875,21.944,54.652,47.615,46.567,19.348-6.094,35.325-33.209,21.162-56.092C257.558,209.958,244.4,203.309,224.656,203.769ZM530.447,235.52c19.834-.4,20.739,7.248,29.627,16.933,0.179,6.308,2.05,10,0,15.875-3.3,9.446-12.548,15.727-19.046,22.225-12.168,12.171-23.81,24.869-35.975,37.042-56.244,56.281-110.926,114.123-167.18,170.393-16.4,16.405-32.249,33.36-48.673,49.742-5.111,5.1-12.787,14.753-25.394,11.642-16.667-4.114-27.3-23.075-38.092-33.867q-42.325-42.333-84.648-84.667c-10-10-24.223-27.1-11.639-44.451,13.833-19.07,34.548-3.544,44.44,6.35,22.4,22.4,44.264,45.332,66.66,67.734,7.091,7.093,19.376,24.141,28.569,27.517,8.734-13.194,23.786-23.791,34.917-34.925,23.1-23.107,45.684-46.737,68.777-69.851C425.088,340.867,472.471,282.027,530.447,235.52Z"/>
</svg>
