<svg xmlns="http://www.w3.org/2000/svg" width="511.98" height="511.98" viewBox="0 0 600 600">
  <defs>
    <style>
      .cls-1 {
        fill: #fff;
        fill-rule: evenodd;
      }
    </style>
  </defs>
  <path id="phpStanSuccessV1" class="cls-1" d="M170.456,85c15.954-.46,44.5,9.012,48.111,19.027h-1c-4.6,4.64-12.136,6.715-13.03,15.02,1.192,1.074,1.651,2.007,3.007,3,1.685,1.346,3.151,1.64,6.014,2,4.571-6.879,12.422-9.078,20.046-13.018,21.064-10.886,61.623-23.286,93.215-13.018,10.7,3.476,24.635,8.136,34.078,14.02,6.626,4.128,9.844,9.782,19.044,12.016,0.963-1.768,1.26-1.683,2-4.005,0.88-1.3.9-2.471,1-5.007-5.12-3.281-11.7-8.911-15.035-14.02,12.158-3.936,19.7-12.78,34.078-16.022,22.511-5.076,46.941,10.417,58.134,18.025,34.9,23.722,56.3,51.972,72.166,95.131,3.685,10.023,8.435,21.079,9.021,34.047h-1c-8.11-10.647-31.131-15.567-46.106-8.011-23.955,12.086-40.956,46.171-63.145,61.084v-2c2.586-3.95.771-9.311,2-15.021,1.392-6.441,1.391-18.592,0-25.034-3.035-14.057.027-36.479-1-50.069-3.049-1.784-3.85-2.785-9.02-3-3.959,6.439-3.16,19.263-3.007,30.041,3.152,4.9-.382,15.372,1,22.03,1.735,8.347.8,20.2-1,28.039-7.1,30.874-11.075,44.174-37.085,56.077v-4.005c5.807-7.293,8.7-20.855,9.02-33.046a25.13,25.13,0,0,0-8.018-1v-1h-1v1c-6.485,5.5-7.544,18.586-11.026,27.037-5.023,12.193-10.887,25.91-16.037,38.052-2.334,5.5-2.805,11.283-6.013,16.022L335.836,382.41l-51.117,53.073h-1v-1c-6.624-4.352-11.5-11.491-17.039-17.024-10.242-10.233-21.239-19.364-30.069-31.042-4.518-5.977-13.3-9.384-16.037-17.024,3.718-5.023,3.129-14.158,7.016-19.026l30.07-5.007c18.993-6.172,40.21-17.549,51.117-32.044,9-11.96,17.994-25.352,23.053-41.056,21-65.2-27.724-119.031-72.166-133.183-7.969-2.538-14.979-1.054-24.055-3-10.16-2.184-23.626-.418-32.074,2-39.06,11.193-59.423,30.933-74.17,66.091-7.33,17.473-11.242,46.941-4.01,69.1,8.024,24.578,24,45.487,44.1,58.08l-5.012,10.014c-7.264-4.659-13.666-11.6-22.05-15.021-24.788-10.1-45.77,6.5-54.125,20.028-3.363,5.447-3.859,13.37-8.018,18.024v-1c-8.506-5.062-11.829-12.6-17.039-21.029-12.259-19.835-29.3-72.309-21.048-108.149,10.881-47.238,33.286-94.532,66.152-119.163,11.507-8.624,24.351-18.117,38.088-24.033C152.537,88.367,165.1,88.323,170.456,85Zm48.111,89.123c36.29-.614,60.212,12.693,72.166,36.049,24.481,47.834-15.336,91.659-52.12,100.138-11.019,2.54-23.36-1.481-30.069-4-25.648-9.653-60.949-40.44-48.111-80.111,5.83-18.016,18.282-34.909,33.076-44.06C200.365,177.894,211.422,178.74,218.567,174.124Zm1,32.044c-9.7,8.265-21.763,10.233-26.06,24.033-8.191,26.306,18.451,54.43,44.1,47.065,19.414-5.575,36.164-32.042,21.049-55.076C251.242,210.887,239.047,205.7,219.569,206.168Zm153.353,13.018c-2.315,1.392-6.152.93-9.021,2-10.085,3.771-17.024,10.658-16.037,23.031,3.243,1.9,4.367,2.908,10.023,3,19.491-21.575,23.677-1.422,42.1,0,3.689-3.834,5.148-4.816,5.011-13.018C395.938,225.585,390.722,219.816,372.922,219.186ZM507.23,240.215c5.125-.19,10.207-0.119,13.03,2,6.949,2.182,7.723,7.441,12.028,12.017,0.261,6.111,1.744,11.582-1,17.023-1.626,3.222-5.929,5.243-8.019,8.011-11.847,15.694-27.306,28.26-41.094,42.058-46.906,46.938-92.378,95.3-139.321,142.2-11.86,11.849-23.22,24.2-35.08,36.049-5.867,5.862-10.793,13.642-20.046,16.022-14.382,3.7-29.579-18.536-36.083-25.034-21.55-21.53-42.6-43.56-64.148-65.09-11.668-11.657-25.169-17.2-25.057-41.056,1.672-1.771,1.523-3.85,3.007-6.008,2.341-3.4,7.067-5.15,10.023-8.011,24.592-1.7,23.753,11.43,37.085,22.03,18.717,14.881,35.249,34.15,52.12,51.07,6.122,6.14,11.324,16.849,20.046,20.028,7.544-11.383,20.462-20.443,30.069-30.042,19.545-19.526,38.589-39.554,58.134-59.081,31.042-31.014,61.505-62.8,92.212-94.129,9.125-9.311,17.847-18.835,27.062-28.039l8.018-9.012C502.431,241.726,505.274,241.782,507.23,240.215Zm35.081,48.066c3.612,7.537-8.349,28.968-11.025,35.048-15.327,34.816-35.379,67.882-85.2,65.089v-2c6.251-4.135,10.8-10.8,16.037-16.022,9.595-9.587,19.784-18.09,28.064-29.04C504.633,322.255,528.886,308.67,542.311,288.281ZM116.332,337.348c16.511-.609,41.519,7.922,42.1,21.029-4.586,2.833-6.613,8.556-12.027,10.014-2.712-3.626-7.024-5.638-13.03-6.008-1.9,3.24-2.91,4.362-3.007,10.013,4.874,1.471,12.027,6.5,13.03,12.017-6.936,10.977,7.274,32.078,11.025,37.051l46.106,45.062c7.468,9.848,16.431,17.417,25.058,26.036,4.6,4.593,8.506,10.406,14.032,14.019a2.843,2.843,0,0,1-1,1c-18.062,14.127-56.84-1.219-69.159-9.012-31.572-19.972-52.9-54.837-68.157-91.125-4.984-11.86-13.126-32.656-7.016-49.068C98.968,345.788,106.951,344.608,116.332,337.348Z"/>
</svg>
